<svg width="23" height="38" xmlns="http://www.w3.org/2000/svg">
    <path d="M21.263 10c.707 0 1.237.53 1.237 1.148v10.953a11.007 11.007 0 0 1-9.807 10.953v2.65h4.33c.618 0 1.148.53 1.148 1.148A1.17 1.17 0 0 1 17.022 38H5.978a1.17 1.17 0 0 1-1.149-1.148c0-.619.53-1.149 1.149-1.149h4.33v-2.65C4.828 32.436.5 27.754.5 22.102V11.148C.5 10.53 1.03 10 1.649 10c.618 0 1.148.53 1.148 1.148v10.953c0 4.77 3.888 8.656 8.659 8.656 4.77 0 8.658-3.886 8.658-8.656V11.148c0-.618.53-1.148 1.15-1.148zM11.5 0c3.28 0 6 2.375 6 5.398v17.204c0 2.95-2.64 5.398-6 5.398s-6-2.447-6-5.47V5.398C5.5 2.448 8.14 0 11.5 0z" fill="#FFFFFF" fill-rule="nonzero"/>
</svg>