<svg width="307" height="189" xmlns="http://www.w3.org/2000/svg">
    <path d="M230.614 176.207c4.053-.147 7.429 2.418 7.54 5.73.11 3.31-3.086 6.115-7.139 6.263-4.053.147-7.428-2.418-7.539-5.73-.11-3.31 3.085-6.115 7.138-6.263zm12.78-26.957c8.3-1.197 15.667 2.486 16.453 8.228.786 5.742-5.306 11.367-13.606 12.565-8.301 1.198-15.667-2.486-16.453-8.228-.786-5.742 5.306-11.367 13.606-12.565zM202.682 1.158c21.166.74 39.12 9.493 47.008 21.471 2.22-.636 4.519-1.11 6.882-1.408 24.379-3.075 46.451 13.76 49.3 37.603 2.7 22.595-12.833 43.374-35.214 48.104-1.581 16.774-21.128 31.975-46.563 35.184-17.403 2.195-33.454-1.742-43.612-9.536-10.396 10.151-30.031 16.59-52.302 15.812-20.867-.729-38.985-7.616-49.136-17.408-5.384 1.853-11.331 2.634-17.5 2.087-15.845-1.404-28.743-11.176-33.789-24.018C13.176 103.168 2.692 91.567.968 77.144-1.815 53.85 19.31 32.017 48.152 28.378a64.716 64.716 0 0 1 12.462-.373c8.552-10.367 24.41-18.497 43.244-20.873 20.979-2.646 40.056 2.553 50.283 12.369C162.775 7.988 181.39.415 202.682 1.158z" fill="#FEFEFE" stroke="#E3E3E3" fill-rule="evenodd" stroke-linecap="round" stroke-linejoin="round"/>
</svg>
