<svg width="120" height="120" xmlns="http://www.w3.org/2000/svg">
    <g fill-rule="nonzero" fill="none">
        <path d="M120 58.51c-.397-15.397-6.55-29.404-16.576-39.934l-3.077 3.08c9.132 9.635 14.889 22.55 15.286 36.755H120v.099z" fill="#BCDAFC"/>
        <path d="M103.424 101.325C113.35 90.894 119.603 76.887 120 61.49h-4.367c-.397 14.205-6.154 27.02-15.286 36.656l3.077 3.179z" fill="#A9D0FB"/>
        <path d="M98.164 100.331c-9.628 9.14-22.531 14.9-36.725 15.298V120c15.385-.397 29.38-6.656 39.802-16.59l-3.077-3.079z" fill="#94C5FB"/>
        <path d="M18.66 103.41c10.422 9.934 24.417 16.193 39.802 16.59v-4.37c-14.194-.398-27.097-6.16-36.725-15.299l-3.077 3.08z" fill="#7CBAFC"/>
        <path d="m16.576 101.325 3.077-3.08C10.52 88.609 4.764 75.695 4.367 61.589H0c.397 15.298 6.65 29.305 16.576 39.736z" fill="#69B0FC"/>
        <path d="M16.576 18.675C6.65 29.106.397 43.113 0 58.51h4.367c.397-14.205 6.154-27.12 15.286-36.755l-3.077-3.08zM18.66 16.49l3.176 3.179c9.628-9.14 22.531-14.9 36.725-15.298V0C43.077.298 29.18 6.556 18.66 16.49z" fill="#F1F6FE"/>
        <path d="M101.34 16.49C90.918 6.556 76.923.298 61.538 0v4.37c14.194.398 27.097 6.16 36.725 15.299l3.077-3.179z" fill="#CEE4FC"/>
    </g>
</svg>
