<svg width="9" height="9" viewBox="0 0 9 9" fill="none"><path opacity="0.3" fill-rule="evenodd" clip-rule="evenodd" d="M7.73213 0.677823C7.94589 0.451943 8.15965 0.226056 8.3764 0.0034647C8.37617 0.363713 8.37667 0.723979 8.37718 1.08424C8.37827 1.85796 8.37936 2.63167 8.37311 3.4052C8.14991 3.405 7.92669 3.4047 7.70348 3.40439C6.83332 3.40321 5.96312 3.40202 5.09316 3.40694C5.31937 3.16926 5.54802 2.93408 5.77667 2.6989C5.9553 2.51517 6.13392 2.33145 6.31138 2.14653C5.61291 1.39888 4.52621 1.11883 3.56751 1.37319C2.73857 1.58722 2.02092 2.21426 1.65807 3.02503C1.59432 3.31031 1.35092 3.5228 1.06017 3.5228C0.720897 3.5228 0.445813 3.23356 0.445813 2.87674C0.445813 2.77179 0.469781 2.67273 0.512022 2.5851L0.510314 2.58435C1.01774 1.33765 2.12228 0.38377 3.38346 0.100439C4.09202 -0.0633413 4.84224 -0.0264522 5.5328 0.208402C6.1323 0.412335 6.68452 0.765795 7.1347 1.22894C7.13665 1.23064 7.13871 1.23256 7.14087 1.23457C7.15558 1.2483 7.17463 1.26607 7.19144 1.24535C7.37284 1.05749 7.55248 0.867658 7.73213 0.677823ZM6.7582 5.29463C6.84176 5.0415 7.06982 4.85979 7.33825 4.85979C7.67745 4.85979 7.95242 5.14984 7.9524 5.5076C7.9524 5.64257 7.91328 5.76781 7.84637 5.87156C7.38478 6.93943 6.49252 7.78926 5.43721 8.16297C4.3374 8.56405 3.07674 8.43565 2.07169 7.81648C1.7566 7.62671 1.46925 7.38887 1.2102 7.12182C0.926719 7.41743 0.645133 7.71503 0.363546 8.01264C0.24316 8.13987 0.122773 8.26711 0.002238 8.39419C-0.000883342 7.25931 -0.000534487 6.12464 0.00201767 4.98976L0.0481707 4.98977C1.12895 4.99014 2.20989 4.9905 3.29064 4.98956C3.07287 5.21966 2.8517 5.44628 2.63054 5.67289C2.4448 5.86319 2.25907 6.05349 2.07536 6.24585C2.78646 7.00793 3.90006 7.27929 4.86949 7.00214C5.70069 6.77049 6.40683 6.11922 6.75772 5.29439L6.7582 5.29463Z" fill="black"></path></svg>