<svg width="64" height="64" xmlns="http://www.w3.org/2000/svg">
    <g fill-rule="nonzero" fill="none">
        <path d="M32 64C14.4 64 0 49.6 0 32S14.4 0 32 0s32 14.4 32 32-14.3 32-32 32z" fill="#399AFF"/>
        <path d="M41.8 23c.7 0 1.2.5 1.2 1.1v11c0 5.7-4.2 10.3-9.8 11v2.6h4.3c.6 0 1.1.5 1.1 1.1 0 .6-.5 1.1-1.1 1.1h-11c-.6 0-1.1-.5-1.1-1.1 0-.6.5-1.1 1.1-1.1h4.3v-2.6c-5.5-.6-9.8-5.3-9.8-11v-11c0-.6.5-1.1 1.1-1.1.6 0 1.1.5 1.1 1.1v11c0 4.8 3.9 8.7 8.7 8.7 4.8 0 8.7-3.9 8.7-8.7v-11c0-.6.6-1.1 1.2-1.1zM32 13c3.3 0 6 2.4 6 5.4v17.2c0 3-2.6 5.4-6 5.4s-6-2.4-6-5.5V18.4c0-3 2.7-5.4 6-5.4z" fill="#FFF"/>
    </g>
</svg>
