<svg width="35" height="37" xmlns="http://www.w3.org/2000/svg">
    <path d="M16.185 5.75c.65 0 1.169.478 1.231 1.108l.007.129c0 .742-.594 1.385-1.386 1.385H6.533a3.887 3.887 0 0 0-3.91 3.91V30.2a3.887 3.887 0 0 0 3.91 3.91h17.918a3.887 3.887 0 0 0 3.91-3.91v-9.256c0-.693.545-1.237 1.237-1.237h.149c.693 0 1.237.544 1.237 1.237v9.306c0 3.563-2.92 6.483-6.533 6.483H6.533A6.527 6.527 0 0 1 0 30.2V12.283a6.527 6.527 0 0 1 6.533-6.534h9.652zm13.661-5c1.188-.099 2.326.248 3.217.99s1.485 1.831 1.535 2.97c.148 1.188-.248 2.326-.99 3.217l-11.73 14.106c-1.14 1.337-2.822 2.178-4.554 2.327h-.396c-.891 0-1.634-.297-2.228-.792-.643-.545-1.089-1.337-1.138-2.228-.149-1.88.396-3.563 1.534-4.9l11.78-14.156A4.272 4.272 0 0 1 29.846.75zM25.49 8.52a.305.305 0 0 0-.346.05l-8.018 9.603a3.822 3.822 0 0 0-.94 2.87c.049.545.346.792.742.792 1.286-.099 2.276-.643 2.97-1.435l8.018-9.553a.305.305 0 0 0-.05-.346zm4.752-5.147h-.149c-.495.05-.94.297-1.237.644l-1.782 2.178a.305.305 0 0 0 .05.346l2.375 1.98c.1.05.248.05.347-.05l1.782-2.177c.297-.396.445-.842.396-1.287a1.893 1.893 0 0 0-.644-1.238l-.118-.088a1.91 1.91 0 0 0-1.02-.308z" fill="#4D9FF5" fill-rule="nonzero"/>
</svg>
