<svg width="13px" height="13px" viewBox="0 0 18 18" fill="none"><path fill-rule="evenodd" clip-rule="evenodd" d="M8.95462 11.6589C7.47604 11.6589 6.27756 10.4604 6.27756 8.98185C6.27756 7.50327 7.47604 6.30479 8.95462 6.30479C10.4332 6.30479 11.6317 7.50327 11.6317 8.98185C11.6317 10.4604 10.4332 11.6589 8.95462 11.6589ZM17.9092 10.4239V7.48514L15.7337 7.19936C15.567 6.56207 15.313 5.96076 14.9843 5.40789L16.3253 3.66208L14.2474 1.58413L12.494 2.92999C11.9432 2.60754 11.3453 2.35982 10.7122 2.19582L10.4243 0.000244141H7.4849L7.19704 2.19582C6.5639 2.35982 5.96605 2.60754 5.41526 2.92999L3.66184 1.58413L1.58389 3.66208L2.92421 5.40789C2.59553 5.96076 2.34227 6.56207 2.17551 7.19936L0 7.48514V10.4239L2.16098 10.7076C2.32428 11.3546 2.57616 11.9649 2.90622 12.526L1.58389 14.2469L3.66184 16.3249L5.37581 15.0088C5.93976 15.3444 6.55283 15.6018 7.20466 15.7693L7.4849 17.9088H10.4243L10.7046 15.7693C11.3564 15.6018 11.9695 15.3444 12.5334 15.0088L14.2474 16.3249L16.3253 14.2469L15.003 12.526C15.3324 11.9649 15.5849 11.3546 15.7482 10.7076L17.9092 10.4239Z" fill="#959595"></path></svg>